<?xml version="1.0" encoding="UTF-8" standalone="no"?>
<!-- Created with Inkscape (http://www.inkscape.org/) -->

<svg
   version="1.1"
   id="svg1"
   width="175"
   height="215"
   viewBox="0 0 175 215"
   sodipodi:docname="labor-logo-gradient.svg"
   inkscape:version="1.4.2 (ebf0e940, 2025-05-08)"
   xmlns:inkscape="http://www.inkscape.org/namespaces/inkscape"
   xmlns:sodipodi="http://sodipodi.sourceforge.net/DTD/sodipodi-0.dtd"
   xmlns:xlink="http://www.w3.org/1999/xlink"
   xmlns="http://www.w3.org/2000/svg"
   xmlns:svg="http://www.w3.org/2000/svg">
  <sodipodi:namedview
     id="namedview1"
     pagecolor="#ffffff"
     bordercolor="#000000"
     borderopacity="0.25"
     inkscape:showpageshadow="2"
     inkscape:pageopacity="0.0"
     inkscape:pagecheckerboard="0"
     inkscape:deskcolor="#d1d1d1"
     inkscape:zoom="0.77338701"
     inkscape:cx="137.05945"
     inkscape:cy="164.21274"
     inkscape:window-width="1440"
     inkscape:window-height="785"
     inkscape:window-x="0"
     inkscape:window-y="25"
     inkscape:window-maximized="1"
     inkscape:current-layer="svg1" />
  <defs
     id="defs1">
    <linearGradient
       id="linearGradient1">
      <stop
         style="stop-color:#f7c71d;stop-opacity:1;"
         offset="0"
         id="stop1" />
      <stop
         style="stop-color:#f76b1c;stop-opacity:1;"
         offset="1"
         id="stop2" />
    </linearGradient>
    <linearGradient
       xlink:href="#linearGradient1"
       id="linearGradient2"
       x1="140.39455"
       y1="152.50177"
       x2="140.39455"
       y2="322.62421"
       gradientUnits="userSpaceOnUse" />
  </defs>
  <g
     id="g2"
     transform="translate(-53.260316,-178.99055)">
    <path
       style="display:inline;fill:url(#linearGradient2);fill-rule:nonzero;stroke-width:1;stroke-dasharray:none"
       d="m 81.066851,292.19992 c -2.529899,-1.0948 -9.354899,-3.6711 -15.166667,-5.72513 L 55.333333,282.7402 v -12.61058 c 0,-21.37104 1.753446,-30.92464 8.020287,-43.69835 13.635999,-27.79426 43.62087,-45.52495 76.97971,-45.51974 27.63763,0.004 52.41163,11.38665 68.44886,31.4486 7.37506,9.22591 10.86249,15.97566 14.40396,27.87812 1.58858,5.33903 1.70294,6.75396 1.97786,24.47193 l 0.29178,18.80527 -1.56123,0.29605 c -0.85867,0.16283 -3.96123,0.63842 -6.89456,1.05686 -2.93333,0.41844 -9.15555,1.40063 -13.82715,2.18264 -4.67161,0.78201 -8.66721,1.24845 -8.87913,1.03653 -0.21192,-0.21192 -0.35523,-7.33549 -0.31848,-15.83017 l 0.0668,-15.44487 -1.91685,-1.78712 c -1.05426,-0.98291 -4.43872,-3.50212 -7.52102,-5.59823 -3.08231,-2.09612 -6.99833,-4.79612 -8.70228,-6 -1.70395,-1.20389 -8.60395,-6.08297 -15.33333,-10.8424 -17.17578,-12.14775 -18.51791,-13.01315 -20.18184,-13.01315 -0.81359,0 -3.02072,1.125 -4.90472,2.5 -1.88399,1.375 -7.08949,5.05 -11.56776,8.16666 -4.47827,3.11667 -12.516,8.75253 -17.86162,12.52415 -5.34562,3.77161 -10.890031,7.67161 -12.320916,8.66666 -1.430886,0.99506 -3.455886,2.61112 -4.5,3.59124 l -1.898391,1.78206 v 18.71794 c 0,14.54267 -0.185886,18.71262 -0.833333,18.69405 -0.458333,-0.0131 -2.90325,-0.91964 -5.433149,-2.01443 z"
       id="path5" />
    <path
       style="display:inline;fill:#5f7444"
       d="m 127,391.9305 c -5.71516,-0.90282 -15.42029,-3.3826 -16.95804,-4.33298 -1.43951,-0.88966 -0.0459,-2.60395 12.10249,-14.88756 23.97994,-24.24683 49.61954,-42.87472 78.18888,-56.80642 8.79707,-4.28985 23.00366,-10.33195 24.29318,-10.33195 0.438,0 0.70682,1.99167 0.70682,5.23669 v 5.2367 l -6.16666,3.49895 c -28.99811,16.45343 -57.40048,41.02259 -78.06316,67.52766 -5.14322,6.59748 -4.50019,6.37594 -14.10351,4.85891 z m 30.33333,-0.74827 c 0,-0.52526 7.51486,-10.30447 13.24495,-17.23585 5.50544,-6.65965 11.6418,-13.16274 21.75505,-23.05523 12.97009,-12.68696 31.82111,-27.77924 32.20984,-25.78744 0.30627,1.56935 -2.32375,10.50872 -4.86334,16.5303 -8.10058,19.20723 -21.32069,33.4267 -39.23201,42.19773 -7.51755,3.68128 -23.11449,8.64117 -23.11449,7.35049 z M 94.666667,380.71964 c -3.951863,-2.38494 -11.49676,-8.10962 -15,-11.38122 l -3.333334,-3.11292 5.333334,-5.07496 c 11.628738,-11.06537 31.853493,-26.00019 48.666663,-35.93754 3.66667,-2.16716 6.88708,-4.24805 7.15646,-4.62419 0.71887,-1.00375 0.60853,-6.30309 -0.19121,-9.18279 -1.28039,-4.61045 -2.93901,-5.79656 -10.11055,-7.23017 -7.72597,-1.54445 -11.69697,-3.15766 -16.27253,-6.61071 -7.9085,-5.96832 -14.335079,-20.91249 -12.278168,-28.55128 0.921701,-3.42293 2.309208,-3.87869 8.517098,-2.79764 13.76156,2.39648 25.24356,9.30467 28.06193,16.88357 1.26471,3.40094 2.498,9.13846 1.96433,9.13846 -0.14841,0 -2.64978,-1.80147 -5.5586,-4.00327 -5.18152,-3.92211 -15.99707,-9.84397 -16.69822,-9.14282 -0.19513,0.19513 1.99217,2.06848 4.86067,4.16299 6.19865,4.52611 13.19054,11.18313 17.31226,16.4831 1.63962,2.10834 3.28046,3.83334 3.64632,3.83334 0.36585,0 1.2682,-1.425 2.00522,-3.16667 5.23197,-12.36378 11.06998,-21.01784 18.59231,-27.56056 2.20253,-1.9157 3.85016,-3.63752 3.6614,-3.82627 -0.57048,-0.57049 -9.53734,5.86828 -13.22038,9.49305 -1.89658,1.86658 -5.03785,5.19378 -6.98059,7.39378 -2.9849,3.38018 -3.63021,3.829 -4.16447,2.89645 -0.73299,-1.27944 1.2686,-8.42432 3.71465,-13.25985 3.31234,-6.54807 10.4862,-12.68612 21.31541,-18.23772 2.56666,-1.3158 5.6184,-2.39384 6.78163,-2.39563 1.8454,-0.003 2.22624,0.31539 2.98805,2.49675 2.16178,6.19001 -0.029,23.62717 -3.68409,29.32282 -3.56132,5.54955 -8.89131,9.24523 -17.08559,11.84675 -4.49051,1.42565 -6.23857,2.93933 -7.23493,6.26487 -0.90993,3.03708 -1.02334,10.73223 -0.15817,10.73223 0.3338,0 4.0088,-1.53891 8.16667,-3.41979 20.34261,-9.20233 40.53782,-15.88563 60.13315,-19.90017 9.98251,-2.04515 9.75994,-2.10375 9.75994,2.56972 v 3.91643 l -6.16666,2.10366 c -46.82034,15.97208 -87.49039,43.09508 -118.31297,78.90335 -2.444867,2.84033 -2.961124,2.92167 -6.187033,0.97485 z M 66.508649,354.73826 C 61.082809,347.6117 57.087805,333.99532 56.209082,319.6337 l -0.426742,-6.97456 2.275497,1.57961 c 3.175578,2.20443 8.336291,6.39054 12.275496,9.95727 4.847157,4.38882 16.315709,16.90964 16.325211,17.82309 0.0097,0.9343 -16.597472,14.88581 -17.719334,14.88581 -0.429527,0 -1.523279,-0.975 -2.430561,-2.16666 z M 87.200452,327.83933 C 76.790608,318.02383 69.208156,311.92017 61.862213,307.44277 l -5.804453,-3.53785 -0.02888,-6.5 c -0.01918,-4.31572 0.218522,-6.5 0.707342,-6.5 1.729041,0 18.535429,7.09572 28.963624,12.22856 9.707747,4.77822 24.850974,13.35022 31.190794,17.65591 l 1.89063,1.28403 -11.30983,6.74908 c -6.2204,3.712 -11.480983,6.74909 -11.690179,6.74909 -0.209196,0 -4.07056,-3.47952 -8.580809,-7.73226 z"
       id="path4" />
    <path
       style="display:inline;fill:#44703a"
       d="m 162.68398,384.88219 c 11.30238,-14.84744 24.8658,-29.38733 38.98269,-41.78919 9.77298,-8.58569 21.57405,-17.83624 22.09253,-17.31776 0.53651,0.5365 -2.31565,10.09673 -4.68946,15.71875 -6.17919,14.63448 -15.96636,27.05436 -27.95302,35.47227 -7.90764,5.55332 -22.31421,11.82162 -29.99135,13.04925 l -2.67463,0.42769 z m -68.0637,-4.87344 c -5.462942,-3.29918 -15.533753,-11.38539 -16.783711,-13.47625 -0.327271,-0.54744 2.061097,-3.0821 7,-7.42877 15.176271,-13.35644 29.138821,-23.43045 48.496761,-34.99051 l 5,-2.98587 -0.0127,-4.94455 c -0.0154,-6.00074 -1.53251,-9.62645 -4.59211,-10.97455 -1.13403,-0.49967 -4.61187,-1.39383 -7.72854,-1.98702 -7.578,-1.44231 -13.09121,-4.24115 -17.52085,-8.89466 -7.54047,-7.92156 -12.194225,-23.32562 -8.2412,-27.27864 0.87022,-0.87023 1.69815,-0.89537 6.1,-0.18528 12.56859,2.02753 23.89708,7.97651 27.09294,14.22743 1.27921,2.50204 3.4149,9.20383 3.04456,9.5538 -0.0782,0.0739 -2.39212,-1.50634 -5.14212,-3.51156 -4.58457,-3.34294 -13.52254,-8.13795 -17.16666,-9.20951 -3.02368,-0.88911 -1.36477,1.01682 4.9846,5.72683 7.20542,5.34505 15.63663,13.45225 18.51813,17.80651 2.88464,4.35897 4.0545,3.73727 7.09265,-3.76922 3.47969,-8.59745 8.70886,-16.15922 15.92006,-23.02162 6.04141,-5.74918 7.26346,-8.10964 3.11339,-6.01369 -4.34565,2.19473 -9.64206,6.53621 -16.02423,13.13509 l -6.56207,6.78488 0.41189,-2.88715 c 0.58116,-4.07375 3.23273,-10.28098 6.00506,-14.05766 2.86937,-3.90887 7.43112,-7.47192 15.33501,-11.97775 6.06143,-3.45548 9.97825,-4.73803 11.08617,-3.63012 1.14845,1.14846 2.0958,8.51864 1.65635,12.88601 -1.77869,17.67678 -6.72969,24.31455 -21.84419,29.28633 -3.61678,1.18971 -4.74546,1.91113 -5.89171,3.76581 -2.42214,3.9191 -3.05803,14.2812 -0.87639,14.2812 0.52003,0 4.3122,-1.53943 8.42706,-3.42094 17.96027,-8.21233 38.69376,-15.19762 56.93335,-19.18135 12.79536,-2.79465 12.33077,-2.84634 12.08304,1.34417 l -0.20151,3.40856 -9,3.15675 c -11.97214,4.19922 -18.85163,7.10799 -29.89398,12.6397 -31.79278,15.92671 -60.16616,37.09041 -80.38848,59.96175 -3.61061,4.08358 -6.899124,7.39641 -7.307808,7.36185 -0.408684,-0.0346 -1.813936,-0.70956 -3.122782,-1.5 z M 66.190845,353.0703 c -2.973249,-4.39277 -4.692828,-8.54675 -6.520443,-15.75142 -1.680425,-6.62444 -3.257698,-18.29268 -2.893181,-21.40299 L 57,314.01499 l 6.666667,5.36696 C 71.408387,325.61437 86,340.4682 86,342.11662 c 0,0.76534 -16.064129,14.12208 -16.982521,14.12035 -0.37628,-7.1e-4 -1.648266,-1.42571 -2.826634,-3.16667 z"
       id="path3" />
  </g>
</svg>
