<svg width="274" height="342" viewBox="0 0 274 342" fill="none" xmlns="http://www.w3.org/2000/svg">
<rect x="0.0634766" y="1.5" width="273" height="340" rx="131" fill="#EDE8DE"/>
<path d="M41.3588 180.087C37.299 178.331 26.3467 174.196 17.0204 170.9L0.0635049 164.907V144.5C-0.436523 110.5 2.87731 95.045 12.9339 74.5467C34.8159 29.9445 83.0191 -0.00835887 136.551 1.7498e-06C180.902 0.00642066 220.572 19.7724 246.307 51.9664C258.142 66.7714 263.738 77.603 269.421 96.7031C271.971 105.271 272.622 107.568 273.064 136V166.151L270.558 166.626C269.18 166.888 264.201 167.651 259.494 168.322C254.787 168.994 244.802 170.57 237.305 171.825C229.809 173.08 223.397 173.828 223.057 173.488C222.717 173.148 222.487 161.717 222.546 148.085L222.653 123.3L219.577 120.432C217.885 118.855 212.454 114.812 207.508 111.449C202.562 108.085 196.277 103.752 193.543 101.82C190.809 99.8885 179.736 92.059 168.937 84.4214C141.375 64.9276 139.221 63.5388 136.551 63.5388C135.245 63.5388 131.703 65.3441 128.68 67.5506C125.657 69.7571 117.303 75.6545 110.117 80.6559C102.931 85.6573 90.0323 94.7013 81.4541 100.754C72.8758 106.806 63.9786 113.065 61.6824 114.661C59.3862 116.258 56.1366 118.851 54.4611 120.424L51.4147 123.284V153.321C51.4147 176.658 51.1164 183.35 50.0774 183.32C49.3419 183.299 45.4185 181.844 41.3588 180.087Z" fill="url(#paint0_linear_178_7)"/>
<path d="M115.063 340.5C105.563 340 89.0311 335.525 86.5634 334C84.2534 332.572 87.7823 328.996 107.277 309.284C145.758 270.375 186.903 240.482 232.749 218.125C246.866 211.241 273.063 201 273.063 201.5C273.063 202.149 273.063 204.793 273.063 210V214L272.867 218.352L262.971 223.967C216.437 250.37 170.859 289.797 137.701 332.331C129.448 342.918 131.063 342 115.063 340.5ZM163.563 339.5C163.563 338.657 175.805 322.391 185 311.268C193.835 300.581 203.682 290.146 219.911 274.271C240.725 253.912 270.44 229.304 271.063 232.5C271.555 235.018 267.639 249.837 263.563 259.5C251.063 290.5 229.581 313.056 200.838 327.131C188.774 333.039 163.563 341.571 163.563 339.5ZM63.1828 322.137C56.8412 318.31 44.7337 309.124 39.1119 303.874L34.5634 299L42.3214 290.734C60.9823 272.977 93.4375 249.011 120.418 233.064C126.302 229.587 131.47 226.247 131.902 225.644C133.056 224.033 132.879 215.529 131.595 210.908C129.541 203.509 126.879 201.606 115.371 199.306C102.973 196.827 96.6003 194.238 89.2578 188.697C76.5668 179.12 66.2539 155.138 69.5547 142.88C71.0337 137.387 73.2603 136.656 83.2223 138.391C105.306 142.236 123.731 153.322 128.254 165.484C130.283 170.942 132.263 180.149 131.406 180.149C131.168 180.149 127.154 177.258 122.486 173.725C114.171 167.431 96.8152 157.928 95.6901 159.053C95.377 159.366 98.887 162.372 103.49 165.734C113.437 172.997 124.657 183.679 131.272 192.184C133.903 195.568 136.536 198.336 137.123 198.336C137.71 198.336 139.158 196.049 140.341 193.254C148.737 173.414 158.105 159.526 170.176 149.027C173.711 145.953 176.355 143.19 176.052 142.887C175.136 141.972 160.747 152.304 154.837 158.121C151.793 161.116 146.752 166.455 143.635 169.986C138.845 175.41 137.809 176.13 136.952 174.634C135.776 172.581 138.988 161.115 142.913 153.355C148.228 142.847 159.74 132.998 177.118 124.089C181.237 121.977 186.134 120.247 188.001 120.244C190.962 120.24 191.574 120.751 192.796 124.251C196.265 134.184 192.75 162.166 186.884 171.306C181.169 180.212 172.616 186.142 159.466 190.317C152.26 192.605 149.455 195.034 147.856 200.37C146.396 205.244 146.214 217.593 147.603 217.593C148.138 217.593 154.036 215.123 160.708 212.105C193.352 197.338 225.601 185.781 257.205 180.17C275.063 177 273.063 178.5 273.063 184.5V190.5L262.971 193.955C187.837 219.586 122.573 263.111 73.1113 320.573C69.188 325.131 68.3595 325.262 63.1828 322.137ZM18.5634 276.5C9.85644 265.064 2.87905 247.158 1.46894 224.111L1.06329 217L3.06329 219C8.15923 222.538 15.7419 229.776 22.0633 235.5C29.8417 242.543 46.5482 260.034 46.5634 261.5C46.579 262.999 26.7296 282.579 23.5634 283C21.7296 283.244 20.0194 278.412 18.5634 276.5ZM51.2016 237.279C34.4967 221.528 22.3289 211.733 10.5407 204.548L0.063293 198.5L0.0633142 188C0.0325355 181.074 -0.221011 178 0.563411 178C3.33805 178 32.0591 189.396 48.7935 197.633C64.3718 205.301 88.6726 219.056 98.8462 225.966L101.88 228.026L83.731 238.857C73.749 244.813 65.3072 249.687 64.9715 249.687C64.6357 249.687 58.4393 244.103 51.2016 237.279Z" fill="#5F7444"/>
<path d="M171.729 330.507C190.04 306.498 212.014 282.986 234.884 262.932C250.718 249.048 269.836 234.089 270.676 234.928C271.546 235.795 266.925 251.255 263.079 260.346C253.068 284.011 237.212 304.095 217.792 317.707C205.063 327 181.563 337 169.204 338.808L164.87 339.5L171.729 330.507ZM63.0637 322.5C54.0635 318 37.0885 302.881 35.0635 299.5C34.5333 298.615 37.6068 295.851 45.6083 288.822C70.1953 267.224 92.816 250.933 124.178 232.24L132.278 227.412L132.258 219.416C132.233 209.713 129.775 203.85 124.818 201.67C122.981 200.862 117.346 199.416 112.297 198.456C100.02 196.124 91.088 191.598 83.9115 184.073C71.6952 171.263 64.1557 146.354 70.56 139.962C71.9698 138.555 73.3111 138.514 80.4426 139.662C100.805 142.941 119.158 152.561 124.336 162.669C126.408 166.715 129.868 177.552 129.268 178.118C129.142 178.238 125.393 175.682 120.938 172.44C113.51 167.034 99.0297 159.28 93.1259 157.547C88.2272 156.109 90.9148 159.191 101.201 166.808C112.875 175.451 126.534 188.561 131.203 195.602C135.876 202.651 137.771 201.646 142.693 189.507C148.331 175.604 156.803 163.377 168.485 152.28C178.273 142.983 180.253 139.166 173.529 142.555C166.489 146.104 157.908 153.125 147.569 163.795L136.937 174.767L137.605 170.098C138.546 163.511 142.842 153.473 147.333 147.366C151.982 141.045 159.373 135.284 172.178 127.997C181.998 122.41 188.343 120.336 190.138 122.127C191.999 123.984 193.534 135.902 192.822 142.965C189.94 171.549 181.919 182.283 157.432 190.323C151.573 192.246 149.744 193.413 147.887 196.412C143.963 202.75 142.933 219.506 146.467 219.506C147.31 219.506 153.453 217.016 160.12 213.974C189.217 200.694 222.807 189.398 252.357 182.956C273.087 178.437 272.334 178.354 271.933 185.13L271.606 190.642L257.026 195.747C237.63 202.537 226.484 207.241 208.594 216.186C157.087 241.94 111.119 276.163 78.3574 313.148C72.5078 319.751 68.2256 325.056 67.5635 325C66.9014 324.944 65.1841 323.778 63.0637 322.5ZM17.5637 276.5C12.7467 269.397 9.52439 264.15 6.56348 252.5C3.84103 241.788 -0.441114 224.014 0.149439 218.985L0.510362 215.911L11.311 224.589C23.8533 234.668 47.4932 258.687 47.4932 261.353C47.4932 262.59 24.5514 284.503 23.0635 284.5C22.4539 284.499 19.4727 279.315 17.5637 276.5Z" fill="#44703A"/>
<defs>
<linearGradient id="paint0_linear_178_7" x1="136.563" y1="-44.0899" x2="136.563" y2="228.91" gradientUnits="userSpaceOnUse">
<stop stop-color="#F7C71D"/>
<stop offset="1" stop-color="#F76B1C"/>
</linearGradient>
</defs>
</svg>
